PathFileType	4	(X/Y/Z)	C:\Users\WrightLab\Desktop\Jo\P5V25.trc
DataRate	CameraRate	NumFrames	NumMarkers	Units	OrigDataRate	OrigDataStartFrame	OrigNumFrames
100.00	100.00	       14	19	mm	100.00	396	       790
Frame#	Time	Headset_Front			Headset_Back			Headset_Left			Headset_Right			Left_Shoulder			Right_Shoulder			Sternum			C7			Left Elbow			Right Elbow			Left Wrist			Right Wrist			Left ASIS			Right ASIS			S2			Left Knee			Right Knee			Left Ankle			Right Ankle			
		X1	Y1	Z1	X2	Y2	Z2	X3	Y3	Z3	X4	Y4	Z4	X5	Y5	Z5	X6	Y6	Z6	X7	Y7	Z7	X8	Y8	Z8	X9	Y9	Z9	X10	Y10	Z10	X11	Y11	Z11	X12	Y12	Z12	X13	Y13	Z13	X14	Y14	Z14	X15	Y15	Z15	X16	Y16	Z16	X17	Y17	Z17	X18	Y18	Z18	X19	Y19	Z19	

396	3.950	-95.52621	1431.60254	-56.20531	-49.65052	1580.59766	-201.43231							-104.72852	1514.44067	-418.77557	-209.52318	1530.95032	-40.83201	-174.20035	1301.67200	-237.76732	-330.28061	1531.44812	-325.12622	-90.08057	1413.48975	-368.07858	-328.76416	1176.72009	-4.46760	-29.27426	1266.47949	-478.54044	-126.05951	1067.52319	87.26328	-87.67469	932.47211	-348.27936	-280.40372	933.88165	-138.87799	-339.93283	991.44763	-449.90814	-61.13118	502.10681	-360.38675	-385.59976	495.24347	-125.01735	-62.36192	88.86539	-384.41583	-436.23907	95.36698	-274.71432	
397	3.960	-90.49445	1431.76599	-57.14753	-45.12549	1580.46240	-202.17461							-101.29434	1514.11353	-419.71918	-205.60281	1530.55994	-42.49767	-170.39250	1301.51477	-238.66141	-326.55615	1531.63538	-325.24048	-87.74844	1412.94153	-368.30334	-323.16327	1176.74536	-4.28369	-26.34726	1266.16272	-480.48755	-119.46367	1066.85657	85.96804	-84.90382	932.38245	-349.21051	-276.59787	933.89307	-139.11214	-337.42859	991.37177	-448.55408	-59.64693	502.20520	-361.06314	-382.44357	495.63373	-124.34981	-62.46515	88.71877	-384.38257	-436.24887	95.72348	-274.94196	
398	3.970	-84.94759	1431.22058	-57.83839	-40.64462	1580.29004	-203.96230							-98.18717	1513.86487	-421.03583	-199.61284	1530.68506	-41.70493	-165.80455	1301.89221	-239.18195	-322.68304	1531.54797	-324.53311	-83.05975	1412.62964	-368.91739	-317.48587	1177.16565	-3.33617	-23.26012	1265.66943	-481.87018	-113.08514	1065.93652	85.02968	-81.61016	931.58929	-350.04648	-273.49033	933.73676	-139.54614	-335.30054	991.60321	-449.05283	-57.84073	502.03485	-362.32269	-379.27298	496.00327	-122.37887	-62.63405	88.51436	-384.32120	-436.04221	95.90852	-275.09659	
399	3.980	-80.33548	1430.81909	-58.94887	-35.97307	1579.57568	-204.54761							-94.66602	1513.40564	-421.96497	-194.18654	1530.32397	-41.79404	-162.10741	1301.66443	-239.88490	-318.60577	1531.54053	-323.93192	-82.12904	1412.25879	-369.81042	-312.11908	1177.43286	-3.26745	-21.21785	1265.47607	-482.88486	-107.61991	1065.28259	84.33707	-79.50142	931.32410	-351.25830	-269.87067	932.87366	-140.38486	-332.80630	991.96588	-448.84589	-55.85889	501.44247	-363.37103	-376.31274	496.61758	-121.11938	-62.47028	88.55843	-384.51031	-435.86017	96.06642	-275.32565	
400	3.990	-74.64314	1430.49927	-59.55990	-31.36763	1579.26050	-205.23508							-91.11223	1512.97375	-422.66815	-188.88046	1530.01831	-42.53080	-158.31284	1300.80786	-240.68054	-314.95612	1531.90613	-324.57941	-77.61591	1412.58301	-371.27673	-305.59692	1177.14648	-3.17614	-17.96853	1265.38916	-485.86816	-101.50214	1064.55945	83.50226	-76.51974	931.16205	-352.77646	-266.49091	933.16595	-140.34763	-330.26672	991.49408	-447.83624	-54.27574	501.15659	-364.88995	-373.91690	496.44214	-120.84778	-62.46982	88.50072	-384.53735	-435.70438	96.07214	-275.74820	
401	4.000	-69.96951	1429.74048	-61.02719	-26.80146	1578.93140	-206.67511							-88.12720	1512.43665	-423.88855	-183.68845	1529.72095	-42.89864	-154.75963	1300.29944	-241.43893	-310.65302	1531.89026	-323.76797	-72.53863	1411.95532	-372.61115	-301.54242	1176.94165	-2.42707	-15.27787	1265.24817	-488.12082	-95.68595	1063.97290	82.92220	-73.53369	930.53485	-353.11340	-264.39484	932.88318	-141.52841	-327.50580	992.17993	-447.84326	-51.84965	501.03824	-366.23236	-370.49915	496.39493	-119.29289	-62.29116	88.31369	-384.54578	-435.54916	96.38725	-275.59308	
402	4.010	-65.03299	1429.30530	-61.86781	-22.05661	1578.06909	-207.40350							-84.45319	1512.30798	-424.97723	-178.19046	1529.32837	-43.26685	-150.63242	1300.87207	-242.03409	-307.57968	1532.50488	-323.36389	-70.64565	1411.01245	-372.38721	-294.02640	1177.64856	-2.24691	-12.67938	1264.40125	-488.58521	-89.82528	1062.70459	82.14364	-71.10449	930.20160	-354.68539	-260.68884	933.18787	-141.78441	-325.08319	992.66669	-448.68719	-50.08826	500.78012	-367.20728	-367.38525	496.27328	-117.94956	-61.96132	88.14328	-384.42233	-435.45435	96.41286	-275.55219	
403	4.020	-60.04114	1428.69824	-62.33010	-17.44705	1577.83508	-208.58035							-80.72240	1512.24133	-425.86246	-173.20853	1528.96790	-43.20883	-147.05194	1300.40002	-242.66531	-302.74451	1532.33960	-323.46014	-65.55093	1411.13110	-374.04083	-288.16327	1178.44324	-1.49693	-10.16784	1264.14807	-489.41028	-84.30772	1062.10730	81.72501	-68.37730	929.45642	-355.94949	-258.32898	933.19171	-142.55045	-322.41864	993.33942	-449.01050	-48.66179	500.84753	-369.09872	-365.17337	496.32578	-117.62087	-62.14634	87.83475	-384.66681	-435.27429	96.51778	-275.67166	
404	4.030	-55.69839	1427.37573	-63.77584	-12.72149	1577.20520	-209.22162							-77.46307	1511.78821	-426.65088	-168.13925	1528.35889	-43.50867	-142.69865	1299.80139	-243.03798	-298.67798	1532.22925	-322.61374				-283.45651	1178.06824	-0.41750	-7.26001	1264.17053	-491.48083	-79.07887	1060.81885	80.91280	-64.79253	929.06488	-356.39563	-255.48599	932.66650	-143.93465	-319.91919	993.03949	-448.48358	-46.74657	500.49438	-370.34683	-362.10684	496.61896	-117.14598	-61.96692	87.62859	-384.62915	-434.96933	96.81320	-275.85974	
405	4.040	-50.23532	1426.66846	-64.27165	-8.06544	1576.62378	-210.40628							-73.52664	1511.87610	-427.16452	-162.55156	1528.21338	-43.83310	-139.24539	1299.93579	-244.17027	-295.20456	1532.74023	-321.79932	-58.62547	1410.17419	-375.47910	-276.99194	1178.31689	-0.71370	-4.94116	1263.88086	-492.01596	-73.48177	1060.04492	80.38362	-61.98085	928.82013	-357.24515	-252.85379	932.59229	-144.55835	-317.68143	993.51196	-449.72714	-45.01233	500.68863	-372.70343	-360.09976	496.27832	-117.88759	-61.85686	87.41207	-384.84909	-434.82584	96.96815	-276.06558	
406	4.050	-45.12312	1425.96997	-64.26089	-3.12351	1576.38696	-211.63245							-69.61707	1510.90552	-427.90002	-157.48053	1527.27625	-44.12253	-135.34036	1299.40283	-243.42473	-290.94641	1532.84619	-322.19205	-55.22977	1409.89856	-376.73907	-271.04126	1178.31616	-0.70869	-1.29140	1262.72302	-493.22491	-67.42369	1058.37720	80.21178	-59.32652	928.40741	-358.85278	-249.93994	932.16547	-145.12210	-315.26184	994.21173	-450.20285	-42.90818	500.76321	-373.76535	-358.84854	496.63306	-118.03375	-61.22905	86.68993	-384.80212	-434.72812	97.01563	-276.00140	
407	4.060	-41.07572	1426.38647	-67.38644	1.52697	1575.37805	-212.25317							-66.32552	1510.91504	-428.26038	-151.98590	1526.85278	-44.15436	-131.48637	1298.83679	-244.45804	-287.00241	1533.20386	-321.65659	-51.66624	1409.63330	-377.18509	-265.17261	1178.82568	1.29559	1.07482	1262.88562	-494.34894	-62.30934	1057.96594	79.58809	-56.60085	927.89252	-359.63416	-247.71565	932.79822	-145.60803	-313.12350	994.30505	-450.31766	-41.02953	500.77371	-375.89651	-356.24829	497.31412	-116.97758	-61.26411	86.65802	-384.75806	-434.50375	97.21201	-276.04562	
408	4.070	-36.16339	1425.23364	-68.99876	6.33856	1574.90686	-213.10909							-62.96193	1510.47522	-429.02316	-146.49434	1526.20618	-44.70900	-127.81664	1298.50476	-244.60056	-281.82169	1532.94189	-320.92599	-47.89267	1409.63928	-378.46109	-260.44257	1178.79236	2.65558	2.95745	1262.19946	-495.26236	-56.32464	1056.85925	78.89891	-51.49527	928.78625	-359.90906	-244.66304	932.84222	-146.62155	-310.81735	995.18414	-451.26053	-39.98639	499.95984	-377.26291	-354.15378	496.34048	-118.85050	-60.93353	86.36047	-385.13202	-434.38913	97.22712	-276.00937	
409	4.080	-30.75830	1425.10120	-69.61221	10.99919	1574.12378	-213.49196							-59.12949	1510.18616	-428.62854	-141.14427	1525.55847	-44.68760	-123.26991	1297.83374	-245.45796	-279.15991	1533.08447	-320.90631	-44.57895	1408.23474	-378.43863	-254.25504	1178.55542	1.19869	5.92837	1261.51294	-496.63800	-51.02797	1055.99866	78.43388	-48.46610	928.59589	-361.30573	-241.87589	932.79114	-147.07001	-308.62753	995.12506	-450.82452	-38.14614	500.08136	-379.47171	-352.60645	496.28497	-120.01382	-60.86010	86.35732	-384.84171	-434.15274	97.47129	-276.27658	
